<svg width="30" height="30" viewBox="0 0 30 30" fill="none" xmlns="http://www.w3.org/2000/svg">
<path d="M15 6.25L14.2929 5.54289L15 4.83579L15.7071 5.54289L15 6.25ZM16 17.5C16 18.0523 15.5523 18.5 15 18.5C14.4477 18.5 14 18.0523 14 17.5L16 17.5ZM8.04289 11.7929L14.2929 5.54289L15.7071 6.95711L9.45711 13.2071L8.04289 11.7929ZM15.7071 5.54289L21.9571 11.7929L20.5429 13.2071L14.2929 6.95711L15.7071 5.54289ZM16 6.25L16 17.5L14 17.5L14 6.25L16 6.25Z" fill="#EBEDEE"/>
<path d="M6.25 20L6.25 21.25C6.25 22.6307 7.36929 23.75 8.75 23.75L21.25 23.75C22.6307 23.75 23.75 22.6307 23.75 21.25V20" stroke="#EBEDEE" stroke-width="2"/>
</svg>
