<svg width="300" height="45" viewBox="0 0 300 45" fill="none" xmlns="http://www.w3.org/2000/svg">
<rect width="300" height="45" rx="4" fill="#F2F2F2"/>
<path fill-rule="evenodd" clip-rule="evenodd" d="M29.64 22.7046C29.64 22.0664 29.5827 21.4527 29.4764 20.8636H21V24.345H25.8436C25.635 25.47 25.0009 26.4232 24.0477 27.0614V29.3196H26.9564C28.6582 27.7527 29.64 25.4455 29.64 22.7046Z" fill="#4285F4"/>
<path fill-rule="evenodd" clip-rule="evenodd" d="M21 31.5C23.43 31.5 25.4673 30.6941 26.9564 29.3195L24.0477 27.0614C23.2418 27.6014 22.2109 27.9204 21 27.9204C18.6559 27.9204 16.6718 26.3373 15.9641 24.21H12.9573V26.5418C14.4382 29.4832 17.4818 31.5 21 31.5Z" fill="#34A853"/>
<path fill-rule="evenodd" clip-rule="evenodd" d="M15.9641 24.21C15.7841 23.67 15.6818 23.0932 15.6818 22.5C15.6818 21.9068 15.7841 21.33 15.9641 20.79V18.4582H12.9573C12.3477 19.6732 12 21.0477 12 22.5C12 23.9523 12.3477 25.3268 12.9573 26.5418L15.9641 24.21Z" fill="#FBBC05"/>
<path fill-rule="evenodd" clip-rule="evenodd" d="M21 17.0795C22.3214 17.0795 23.5077 17.5336 24.4405 18.4255L27.0218 15.8441C25.4632 14.3918 23.4259 13.5 21 13.5C17.4818 13.5 14.4382 15.5168 12.9573 18.4582L15.9641 20.79C16.6718 18.6627 18.6559 17.0795 21 17.0795Z" fill="#EA4335"/>
<path d="M103.878 24.2598H105.587C105.532 24.9115 105.35 25.4925 105.04 26.0029C104.73 26.5088 104.295 26.9076 103.734 27.1992C103.174 27.4909 102.493 27.6367 101.69 27.6367C101.075 27.6367 100.521 27.5273 100.029 27.3086C99.5371 27.0853 99.1156 26.7708 98.7646 26.3652C98.4137 25.9551 98.1449 25.4606 97.958 24.8818C97.7757 24.3031 97.6846 23.6559 97.6846 22.9404V22.1133C97.6846 21.3978 97.778 20.7507 97.9648 20.1719C98.1562 19.5931 98.4297 19.0986 98.7852 18.6885C99.1406 18.2738 99.5667 17.957 100.063 17.7383C100.565 17.5195 101.128 17.4102 101.752 17.4102C102.545 17.4102 103.215 17.556 103.762 17.8477C104.309 18.1393 104.732 18.5426 105.033 19.0576C105.339 19.5726 105.525 20.1628 105.594 20.8281H103.885C103.839 20.3997 103.739 20.0329 103.584 19.7275C103.434 19.4222 103.21 19.1898 102.914 19.0303C102.618 18.8662 102.23 18.7842 101.752 18.7842C101.36 18.7842 101.018 18.8571 100.727 19.0029C100.435 19.1488 100.191 19.363 99.9951 19.6455C99.7992 19.9281 99.651 20.2767 99.5508 20.6914C99.4551 21.1016 99.4072 21.571 99.4072 22.0996V22.9404C99.4072 23.4417 99.4505 23.8975 99.5371 24.3076C99.6283 24.7132 99.765 25.0618 99.9473 25.3535C100.134 25.6452 100.371 25.8708 100.658 26.0303C100.945 26.1898 101.289 26.2695 101.69 26.2695C102.178 26.2695 102.572 26.1921 102.873 26.0371C103.178 25.8822 103.409 25.6566 103.563 25.3604C103.723 25.0596 103.828 24.6927 103.878 24.2598ZM106.667 23.8838V23.7266C106.667 23.1934 106.744 22.6989 106.899 22.2432C107.054 21.7829 107.278 21.3841 107.569 21.0469C107.866 20.7051 108.226 20.4408 108.649 20.2539C109.078 20.0625 109.561 19.9668 110.099 19.9668C110.641 19.9668 111.124 20.0625 111.548 20.2539C111.976 20.4408 112.339 20.7051 112.635 21.0469C112.931 21.3841 113.157 21.7829 113.312 22.2432C113.466 22.6989 113.544 23.1934 113.544 23.7266V23.8838C113.544 24.417 113.466 24.9115 113.312 25.3672C113.157 25.8229 112.931 26.2217 112.635 26.5635C112.339 26.9007 111.979 27.165 111.555 27.3564C111.131 27.5433 110.65 27.6367 110.112 27.6367C109.57 27.6367 109.085 27.5433 108.656 27.3564C108.232 27.165 107.872 26.9007 107.576 26.5635C107.28 26.2217 107.054 25.8229 106.899 25.3672C106.744 24.9115 106.667 24.417 106.667 23.8838ZM108.314 23.7266V23.8838C108.314 24.2165 108.349 24.5309 108.417 24.8271C108.485 25.1234 108.592 25.3831 108.738 25.6064C108.884 25.8298 109.071 26.0052 109.299 26.1328C109.527 26.2604 109.798 26.3242 110.112 26.3242C110.418 26.3242 110.682 26.2604 110.905 26.1328C111.133 26.0052 111.32 25.8298 111.466 25.6064C111.612 25.3831 111.719 25.1234 111.787 24.8271C111.86 24.5309 111.896 24.2165 111.896 23.8838V23.7266C111.896 23.3984 111.86 23.0885 111.787 22.7969C111.719 22.5007 111.609 22.2386 111.459 22.0107C111.313 21.7829 111.126 21.6051 110.898 21.4775C110.675 21.3454 110.409 21.2793 110.099 21.2793C109.789 21.2793 109.52 21.3454 109.292 21.4775C109.069 21.6051 108.884 21.7829 108.738 22.0107C108.592 22.2386 108.485 22.5007 108.417 22.7969C108.349 23.0885 108.314 23.3984 108.314 23.7266ZM116.559 21.6826V27.5H114.911V20.1035H116.463L116.559 21.6826ZM116.265 23.5283L115.731 23.5215C115.736 22.9974 115.809 22.5166 115.95 22.0791C116.096 21.6416 116.297 21.2656 116.552 20.9512C116.812 20.6367 117.121 20.3952 117.481 20.2266C117.841 20.0534 118.243 19.9668 118.685 19.9668C119.04 19.9668 119.361 20.0169 119.648 20.1172C119.94 20.2129 120.188 20.3701 120.394 20.5889C120.603 20.8076 120.763 21.0924 120.872 21.4434C120.981 21.7897 121.036 22.2158 121.036 22.7217V27.5H119.382V22.7148C119.382 22.3594 119.329 22.0791 119.225 21.874C119.124 21.6644 118.976 21.5163 118.78 21.4297C118.589 21.3385 118.35 21.293 118.062 21.293C117.78 21.293 117.527 21.3522 117.304 21.4707C117.08 21.5892 116.891 21.751 116.736 21.9561C116.586 22.1611 116.47 22.3981 116.388 22.667C116.306 22.9359 116.265 23.223 116.265 23.5283ZM126.108 20.1035V21.3066H121.938V20.1035H126.108ZM123.142 18.292H124.789V25.4561C124.789 25.6839 124.821 25.8594 124.885 25.9824C124.953 26.1009 125.047 26.1807 125.165 26.2217C125.284 26.2627 125.423 26.2832 125.582 26.2832C125.696 26.2832 125.805 26.2764 125.91 26.2627C126.015 26.249 126.099 26.2354 126.163 26.2217L126.17 27.4795C126.033 27.5205 125.874 27.557 125.691 27.5889C125.514 27.6208 125.309 27.6367 125.076 27.6367C124.698 27.6367 124.363 27.5706 124.071 27.4385C123.78 27.3018 123.552 27.0807 123.388 26.7754C123.224 26.4701 123.142 26.0645 123.142 25.5586V18.292ZM129.144 20.1035V27.5H127.489V20.1035H129.144ZM127.38 18.1621C127.38 17.9115 127.462 17.7041 127.626 17.54C127.795 17.3714 128.027 17.2871 128.323 17.2871C128.615 17.2871 128.845 17.3714 129.014 17.54C129.182 17.7041 129.267 17.9115 129.267 18.1621C129.267 18.4082 129.182 18.6133 129.014 18.7773C128.845 18.9414 128.615 19.0234 128.323 19.0234C128.027 19.0234 127.795 18.9414 127.626 18.7773C127.462 18.6133 127.38 18.4082 127.38 18.1621ZM132.582 21.6826V27.5H130.935V20.1035H132.486L132.582 21.6826ZM132.288 23.5283L131.755 23.5215C131.759 22.9974 131.832 22.5166 131.974 22.0791C132.119 21.6416 132.32 21.2656 132.575 20.9512C132.835 20.6367 133.145 20.3952 133.505 20.2266C133.865 20.0534 134.266 19.9668 134.708 19.9668C135.063 19.9668 135.385 20.0169 135.672 20.1172C135.964 20.2129 136.212 20.3701 136.417 20.5889C136.627 20.8076 136.786 21.0924 136.896 21.4434C137.005 21.7897 137.06 22.2158 137.06 22.7217V27.5H135.405V22.7148C135.405 22.3594 135.353 22.0791 135.248 21.874C135.148 21.6644 135 21.5163 134.804 21.4297C134.612 21.3385 134.373 21.293 134.086 21.293C133.803 21.293 133.55 21.3522 133.327 21.4707C133.104 21.5892 132.915 21.751 132.76 21.9561C132.609 22.1611 132.493 22.3981 132.411 22.667C132.329 22.9359 132.288 23.223 132.288 23.5283ZM143.191 25.7568V20.1035H144.846V27.5H143.287L143.191 25.7568ZM143.424 24.2188L143.978 24.2051C143.978 24.7018 143.923 25.1598 143.813 25.5791C143.704 25.9938 143.535 26.3561 143.308 26.666C143.08 26.9714 142.788 27.2106 142.433 27.3838C142.077 27.5524 141.651 27.6367 141.154 27.6367C140.794 27.6367 140.464 27.5843 140.163 27.4795C139.862 27.3747 139.603 27.2129 139.384 26.9941C139.17 26.7754 139.003 26.4906 138.885 26.1396C138.766 25.7887 138.707 25.3695 138.707 24.8818V20.1035H140.354V24.8955C140.354 25.1644 140.386 25.39 140.45 25.5723C140.514 25.75 140.601 25.8936 140.71 26.0029C140.819 26.1123 140.947 26.1898 141.093 26.2354C141.239 26.2809 141.394 26.3037 141.558 26.3037C142.027 26.3037 142.396 26.2126 142.665 26.0303C142.938 25.8434 143.132 25.5928 143.246 25.2783C143.365 24.9639 143.424 24.6107 143.424 24.2188ZM149.795 27.6367C149.248 27.6367 148.754 27.5479 148.312 27.3701C147.874 27.1878 147.5 26.9349 147.19 26.6113C146.885 26.2878 146.65 25.9072 146.486 25.4697C146.322 25.0322 146.24 24.5605 146.24 24.0547V23.7812C146.24 23.2025 146.325 22.6784 146.493 22.209C146.662 21.7396 146.896 21.3385 147.197 21.0059C147.498 20.6686 147.854 20.4111 148.264 20.2334C148.674 20.0557 149.118 19.9668 149.597 19.9668C150.125 19.9668 150.588 20.0557 150.984 20.2334C151.381 20.4111 151.709 20.6618 151.969 20.9854C152.233 21.3044 152.429 21.6849 152.557 22.127C152.689 22.569 152.755 23.0566 152.755 23.5898V24.2939H147.04V23.1113H151.128V22.9814C151.119 22.6852 151.06 22.4072 150.95 22.1475C150.845 21.8877 150.684 21.6781 150.465 21.5186C150.246 21.359 149.954 21.2793 149.59 21.2793C149.316 21.2793 149.073 21.3385 148.858 21.457C148.649 21.571 148.473 21.7373 148.332 21.9561C148.191 22.1748 148.081 22.4391 148.004 22.749C147.931 23.0544 147.895 23.3984 147.895 23.7812V24.0547C147.895 24.3783 147.938 24.679 148.024 24.957C148.116 25.2305 148.248 25.4697 148.421 25.6748C148.594 25.8799 148.804 26.0417 149.05 26.1602C149.296 26.2741 149.576 26.3311 149.891 26.3311C150.287 26.3311 150.64 26.2513 150.95 26.0918C151.26 25.9323 151.529 25.7067 151.757 25.415L152.625 26.2559C152.465 26.4883 152.258 26.7116 152.003 26.9258C151.748 27.1354 151.436 27.3063 151.066 27.4385C150.702 27.5706 150.278 27.6367 149.795 27.6367ZM159.536 25.8594L161.245 20.1035H162.298L162.011 21.8262L160.288 27.5H159.345L159.536 25.8594ZM158.531 20.1035L159.864 25.8867L159.974 27.5H158.921L156.918 20.1035H158.531ZM163.897 25.8184L165.189 20.1035H166.796L164.8 27.5H163.747L163.897 25.8184ZM162.476 20.1035L164.164 25.791L164.376 27.5H163.433L161.689 21.8193L161.402 20.1035H162.476ZM169.681 20.1035V27.5H168.026V20.1035H169.681ZM167.917 18.1621C167.917 17.9115 167.999 17.7041 168.163 17.54C168.332 17.3714 168.564 17.2871 168.86 17.2871C169.152 17.2871 169.382 17.3714 169.551 17.54C169.719 17.7041 169.804 17.9115 169.804 18.1621C169.804 18.4082 169.719 18.6133 169.551 18.7773C169.382 18.9414 169.152 19.0234 168.86 19.0234C168.564 19.0234 168.332 18.9414 168.163 18.7773C167.999 18.6133 167.917 18.4082 167.917 18.1621ZM174.876 20.1035V21.3066H170.706V20.1035H174.876ZM171.909 18.292H173.557V25.4561C173.557 25.6839 173.589 25.8594 173.652 25.9824C173.721 26.1009 173.814 26.1807 173.933 26.2217C174.051 26.2627 174.19 26.2832 174.35 26.2832C174.464 26.2832 174.573 26.2764 174.678 26.2627C174.783 26.249 174.867 26.2354 174.931 26.2217L174.938 27.4795C174.801 27.5205 174.641 27.557 174.459 27.5889C174.281 27.6208 174.076 27.6367 173.844 27.6367C173.465 27.6367 173.131 27.5706 172.839 27.4385C172.547 27.3018 172.319 27.0807 172.155 26.7754C171.991 26.4701 171.909 26.0645 171.909 25.5586V18.292ZM177.774 17V27.5H176.134V17H177.774ZM177.487 23.5283L176.954 23.5215C176.959 23.0111 177.029 22.5394 177.166 22.1064C177.307 21.6735 177.503 21.2975 177.754 20.9785C178.009 20.6549 178.314 20.4066 178.67 20.2334C179.025 20.0557 179.42 19.9668 179.853 19.9668C180.217 19.9668 180.545 20.0169 180.837 20.1172C181.133 20.2174 181.388 20.3792 181.603 20.6025C181.817 20.8213 181.979 21.1084 182.088 21.4639C182.202 21.8148 182.259 22.2432 182.259 22.749V27.5H180.604V22.7354C180.604 22.3799 180.552 22.0973 180.447 21.8877C180.347 21.6781 180.199 21.5277 180.003 21.4365C179.807 21.3408 179.568 21.293 179.285 21.293C178.989 21.293 178.727 21.3522 178.499 21.4707C178.276 21.5892 178.089 21.751 177.938 21.9561C177.788 22.1611 177.674 22.3981 177.597 22.667C177.524 22.9359 177.487 23.223 177.487 23.5283ZM195.22 22.4141V26.2148C195.078 26.4017 194.857 26.6068 194.557 26.8301C194.26 27.0488 193.866 27.238 193.374 27.3975C192.882 27.557 192.269 27.6367 191.535 27.6367C190.911 27.6367 190.339 27.5319 189.819 27.3223C189.3 27.1081 188.851 26.7959 188.473 26.3857C188.099 25.9756 187.81 25.4766 187.604 24.8887C187.399 24.2962 187.297 23.6217 187.297 22.8652V22.1748C187.297 21.4229 187.39 20.7529 187.577 20.165C187.769 19.5726 188.042 19.0713 188.397 18.6611C188.753 18.251 189.181 17.9411 189.683 17.7314C190.188 17.5173 190.76 17.4102 191.398 17.4102C192.214 17.4102 192.889 17.5469 193.422 17.8203C193.96 18.0892 194.374 18.4629 194.666 18.9414C194.958 19.4199 195.142 19.9668 195.22 20.582H193.538C193.483 20.2357 193.376 19.9258 193.217 19.6523C193.062 19.3789 192.839 19.1647 192.547 19.0098C192.26 18.8503 191.886 18.7705 191.426 18.7705C191.029 18.7705 190.681 18.8457 190.38 18.9961C190.079 19.1465 189.828 19.3675 189.628 19.6592C189.432 19.9508 189.284 20.3063 189.184 20.7256C189.083 21.1449 189.033 21.6234 189.033 22.1611V22.8652C189.033 23.4121 189.09 23.8975 189.204 24.3213C189.323 24.7451 189.491 25.1029 189.71 25.3945C189.933 25.6862 190.204 25.9072 190.523 26.0576C190.842 26.2035 191.202 26.2764 191.604 26.2764C191.995 26.2764 192.317 26.2445 192.567 26.1807C192.818 26.1123 193.016 26.0326 193.162 25.9414C193.312 25.8457 193.429 25.7546 193.511 25.668V23.6924H191.439V22.4141H195.22ZM196.642 23.8838V23.7266C196.642 23.1934 196.719 22.6989 196.874 22.2432C197.029 21.7829 197.252 21.3841 197.544 21.0469C197.84 20.7051 198.2 20.4408 198.624 20.2539C199.052 20.0625 199.535 19.9668 200.073 19.9668C200.616 19.9668 201.099 20.0625 201.522 20.2539C201.951 20.4408 202.313 20.7051 202.609 21.0469C202.906 21.3841 203.131 21.7829 203.286 22.2432C203.441 22.6989 203.519 23.1934 203.519 23.7266V23.8838C203.519 24.417 203.441 24.9115 203.286 25.3672C203.131 25.8229 202.906 26.2217 202.609 26.5635C202.313 26.9007 201.953 27.165 201.529 27.3564C201.105 27.5433 200.625 27.6367 200.087 27.6367C199.545 27.6367 199.059 27.5433 198.631 27.3564C198.207 27.165 197.847 26.9007 197.551 26.5635C197.255 26.2217 197.029 25.8229 196.874 25.3672C196.719 24.9115 196.642 24.417 196.642 23.8838ZM198.289 23.7266V23.8838C198.289 24.2165 198.323 24.5309 198.392 24.8271C198.46 25.1234 198.567 25.3831 198.713 25.6064C198.859 25.8298 199.046 26.0052 199.273 26.1328C199.501 26.2604 199.772 26.3242 200.087 26.3242C200.392 26.3242 200.657 26.2604 200.88 26.1328C201.108 26.0052 201.295 25.8298 201.44 25.6064C201.586 25.3831 201.693 25.1234 201.762 24.8271C201.835 24.5309 201.871 24.2165 201.871 23.8838V23.7266C201.871 23.3984 201.835 23.0885 201.762 22.7969C201.693 22.5007 201.584 22.2386 201.434 22.0107C201.288 21.7829 201.101 21.6051 200.873 21.4775C200.65 21.3454 200.383 21.2793 200.073 21.2793C199.763 21.2793 199.494 21.3454 199.267 21.4775C199.043 21.6051 198.859 21.7829 198.713 22.0107C198.567 22.2386 198.46 22.5007 198.392 22.7969C198.323 23.0885 198.289 23.3984 198.289 23.7266ZM204.585 23.8838V23.7266C204.585 23.1934 204.662 22.6989 204.817 22.2432C204.972 21.7829 205.196 21.3841 205.487 21.0469C205.784 20.7051 206.144 20.4408 206.567 20.2539C206.996 20.0625 207.479 19.9668 208.017 19.9668C208.559 19.9668 209.042 20.0625 209.466 20.2539C209.894 20.4408 210.257 20.7051 210.553 21.0469C210.849 21.3841 211.075 21.7829 211.229 22.2432C211.384 22.6989 211.462 23.1934 211.462 23.7266V23.8838C211.462 24.417 211.384 24.9115 211.229 25.3672C211.075 25.8229 210.849 26.2217 210.553 26.5635C210.257 26.9007 209.896 27.165 209.473 27.3564C209.049 27.5433 208.568 27.6367 208.03 27.6367C207.488 27.6367 207.003 27.5433 206.574 27.3564C206.15 27.165 205.79 26.9007 205.494 26.5635C205.198 26.2217 204.972 25.8229 204.817 25.3672C204.662 24.9115 204.585 24.417 204.585 23.8838ZM206.232 23.7266V23.8838C206.232 24.2165 206.267 24.5309 206.335 24.8271C206.403 25.1234 206.51 25.3831 206.656 25.6064C206.802 25.8298 206.989 26.0052 207.217 26.1328C207.445 26.2604 207.716 26.3242 208.03 26.3242C208.336 26.3242 208.6 26.2604 208.823 26.1328C209.051 26.0052 209.238 25.8298 209.384 25.6064C209.53 25.3831 209.637 25.1234 209.705 24.8271C209.778 24.5309 209.814 24.2165 209.814 23.8838V23.7266C209.814 23.3984 209.778 23.0885 209.705 22.7969C209.637 22.5007 209.527 22.2386 209.377 22.0107C209.231 21.7829 209.044 21.6051 208.816 21.4775C208.593 21.3454 208.326 21.2793 208.017 21.2793C207.707 21.2793 207.438 21.3454 207.21 21.4775C206.987 21.6051 206.802 21.7829 206.656 22.0107C206.51 22.2386 206.403 22.5007 206.335 22.7969C206.267 23.0885 206.232 23.3984 206.232 23.7266ZM217.58 20.1035H219.077V27.2949C219.077 27.9603 218.936 28.5254 218.653 28.9902C218.371 29.4551 217.977 29.8083 217.471 30.0498C216.965 30.2959 216.379 30.4189 215.714 30.4189C215.431 30.4189 215.117 30.3779 214.771 30.2959C214.429 30.2139 214.096 30.0817 213.772 29.8994C213.453 29.7217 213.187 29.487 212.973 29.1953L213.745 28.2246C214.009 28.5391 214.301 28.7692 214.62 28.915C214.939 29.0609 215.274 29.1338 215.625 29.1338C216.003 29.1338 216.325 29.0632 216.589 28.9219C216.858 28.7852 217.065 28.5824 217.211 28.3135C217.357 28.0446 217.43 27.7165 217.43 27.3291V21.7783L217.58 20.1035ZM212.556 23.8838V23.7402C212.556 23.1797 212.624 22.6693 212.761 22.209C212.897 21.7441 213.093 21.3454 213.349 21.0127C213.604 20.6755 213.914 20.418 214.278 20.2402C214.643 20.0579 215.055 19.9668 215.516 19.9668C215.994 19.9668 216.402 20.0534 216.739 20.2266C217.081 20.3997 217.366 20.6481 217.594 20.9717C217.822 21.2907 217.999 21.6735 218.127 22.1201C218.259 22.5622 218.357 23.0544 218.421 23.5967V24.0547C218.362 24.5833 218.261 25.0664 218.12 25.5039C217.979 25.9414 217.792 26.3197 217.56 26.6387C217.327 26.9577 217.04 27.2038 216.698 27.377C216.361 27.5501 215.962 27.6367 215.502 27.6367C215.051 27.6367 214.643 27.5433 214.278 27.3564C213.918 27.1696 213.608 26.9076 213.349 26.5703C213.093 26.2331 212.897 25.8366 212.761 25.3809C212.624 24.9206 212.556 24.4215 212.556 23.8838ZM214.203 23.7402V23.8838C214.203 24.221 214.235 24.5355 214.299 24.8271C214.367 25.1188 214.47 25.3763 214.606 25.5996C214.748 25.8184 214.925 25.9915 215.14 26.1191C215.358 26.2422 215.616 26.3037 215.912 26.3037C216.299 26.3037 216.616 26.2217 216.862 26.0576C217.113 25.8936 217.304 25.6725 217.437 25.3945C217.573 25.112 217.669 24.7975 217.724 24.4512V23.2139C217.696 22.945 217.639 22.6943 217.553 22.4619C217.471 22.2295 217.359 22.0267 217.218 21.8535C217.076 21.6758 216.899 21.5391 216.685 21.4434C216.47 21.3431 216.217 21.293 215.926 21.293C215.63 21.293 215.372 21.3568 215.153 21.4844C214.935 21.612 214.755 21.7874 214.613 22.0107C214.477 22.234 214.374 22.4938 214.306 22.79C214.237 23.0863 214.203 23.403 214.203 23.7402ZM222.55 17V27.5H220.896V17H222.55ZM227.615 27.6367C227.068 27.6367 226.574 27.5479 226.132 27.3701C225.694 27.1878 225.321 26.9349 225.011 26.6113C224.705 26.2878 224.471 25.9072 224.307 25.4697C224.143 25.0322 224.061 24.5605 224.061 24.0547V23.7812C224.061 23.2025 224.145 22.6784 224.313 22.209C224.482 21.7396 224.717 21.3385 225.018 21.0059C225.318 20.6686 225.674 20.4111 226.084 20.2334C226.494 20.0557 226.938 19.9668 227.417 19.9668C227.946 19.9668 228.408 20.0557 228.805 20.2334C229.201 20.4111 229.529 20.6618 229.789 20.9854C230.053 21.3044 230.249 21.6849 230.377 22.127C230.509 22.569 230.575 23.0566 230.575 23.5898V24.2939H224.86V23.1113H228.948V22.9814C228.939 22.6852 228.88 22.4072 228.771 22.1475C228.666 21.8877 228.504 21.6781 228.285 21.5186C228.066 21.359 227.775 21.2793 227.41 21.2793C227.137 21.2793 226.893 21.3385 226.679 21.457C226.469 21.571 226.294 21.7373 226.152 21.9561C226.011 22.1748 225.902 22.4391 225.824 22.749C225.751 23.0544 225.715 23.3984 225.715 23.7812V24.0547C225.715 24.3783 225.758 24.679 225.845 24.957C225.936 25.2305 226.068 25.4697 226.241 25.6748C226.414 25.8799 226.624 26.0417 226.87 26.1602C227.116 26.2741 227.396 26.3311 227.711 26.3311C228.107 26.3311 228.461 26.2513 228.771 26.0918C229.08 25.9323 229.349 25.7067 229.577 25.415L230.445 26.2559C230.286 26.4883 230.078 26.7116 229.823 26.9258C229.568 27.1354 229.256 27.3063 228.887 27.4385C228.522 27.5706 228.098 27.6367 227.615 27.6367Z" fill="#1F1F1F"/>
</svg>
