<svg width="117" height="116" viewBox="0 0 117 116" fill="none" xmlns="http://www.w3.org/2000/svg">
<circle cx="58.5" cy="58" r="58" fill="url(#paint0_linear_314_376)"/>
<path d="M79.2895 39.7514C79.8691 42.9665 79.8251 46.2631 79.16 49.4616L79.0081 50.1474C78.1404 54.0642 76.3481 57.7166 73.781 60.7993L73.4903 61.1191C71.0278 63.8278 69.1406 67.0082 67.9432 70.4676L67.9343 70.4932L67.2497 73.9027C67.0356 74.9688 66.9278 76.0535 66.9278 77.1409V80.5484C66.9278 85.7264 63.4037 90.24 58.3802 91.4959C55.0041 92.3399 51.4273 91.579 48.6871 89.4337L47.8855 88.8061C45.762 87.1436 44.1909 84.8776 43.3788 82.3059L42.2788 78.8224C42.2122 78.6117 41.9875 78.4949 41.7769 78.5614C41.5662 78.6279 41.4494 78.8526 41.5159 79.0633L42.616 82.5468C43.4767 85.2725 45.1417 87.674 47.3923 89.436L48.194 90.0636C51.1284 92.361 54.9588 93.1759 58.5743 92.272C63.9538 90.9271 67.7278 86.0935 67.7278 80.5484V77.1409C67.7278 76.1064 67.8304 75.0745 68.034 74.0602L68.708 70.7038C69.8705 67.3566 71.6986 64.2792 74.0822 61.6572L74.3845 61.3247L74.39 61.3181C77.0419 58.1358 78.8933 54.3648 79.7891 50.3204L79.9416 49.6321L79.9427 49.6271C80.6292 46.3273 80.6748 42.9264 80.0768 39.6095L79.9429 38.8667L79.9407 38.8569C77.544 28.5509 67.6085 21.7742 57.1269 23.1855C54.2888 23.5677 51.5386 24.5391 49.0944 26.0328L47.4394 27.0442C42.8019 29.8782 39.0329 33.9327 36.5445 38.7644C36.4433 38.9608 36.5205 39.202 36.7169 39.3031C36.9133 39.4043 37.1545 39.3271 37.2557 39.1307C39.677 34.4294 43.3443 30.4843 47.8566 27.7268L49.5115 26.7154C51.8603 25.2801 54.5047 24.3458 57.2336 23.9784C67.3079 22.6219 76.8531 29.1343 79.1592 39.0284L79.2895 39.7514Z" fill="white"/>
<path fill-rule="evenodd" clip-rule="evenodd" d="M60.3578 63.7936C59.2778 64.0096 58.1018 64.1176 56.8298 64.1176C54.7898 64.1176 52.9178 63.8176 51.2138 63.2176C49.5338 62.6176 48.0698 61.7416 46.8218 60.5896C45.5978 59.4616 44.6498 58.1056 43.9778 56.5216C43.3058 54.9136 42.9698 53.1136 42.9698 51.1216C42.9698 48.9856 43.3298 47.0176 44.0498 45.2176C44.7938 43.4176 45.8378 41.8456 47.1818 40.5016C48.5258 39.1336 50.0978 38.0776 51.8978 37.3336C53.6978 36.5896 55.6538 36.2176 57.7658 36.2176C60.2858 36.2176 62.4218 36.7096 64.1738 37.6936C65.9258 38.6776 67.2578 39.9976 68.1698 41.6536C69.1058 43.2856 69.5738 45.1456 69.5738 47.2336C69.5738 49.3696 69.2858 51.1576 68.7098 52.5976C68.1338 54.0136 67.3898 55.0816 66.4778 55.8016C65.5658 56.5216 64.5938 56.8816 63.5618 56.8816C62.8178 56.8816 62.2058 56.7496 61.7258 56.4856C61.2458 56.1976 60.9218 55.7776 60.7538 55.2256C60.5858 54.6736 60.5738 53.9656 60.7178 53.1016L62.5178 42.6976H61.6898L60.8561 44.7223C60.7333 44.4384 60.5912 44.1835 60.4298 43.9576C60.0698 43.4536 59.6138 43.0816 59.0618 42.8416C58.5338 42.6016 57.9218 42.4816 57.2258 42.4816C56.1698 42.4816 55.1858 42.7336 54.2738 43.2376C53.3858 43.7176 52.6178 44.3896 51.9698 45.2536C51.3218 46.1176 50.8178 47.0896 50.4578 48.1696C50.0978 49.2496 49.9178 50.3896 49.9178 51.5896C49.9178 52.9096 50.1218 54.0376 50.5298 54.9736C50.9618 55.8856 51.5618 56.5816 52.3298 57.0616C53.0978 57.5416 53.9618 57.7816 54.9218 57.7816C55.6898 57.7816 56.3618 57.6136 56.9378 57.2776C57.5138 56.9416 58.0538 56.4736 58.5578 55.8736C58.7803 55.6088 59.005 55.3276 59.2321 55.0301C59.2951 55.2834 59.3823 55.5285 59.4938 55.7656C59.7098 56.1496 59.9978 56.4856 60.3578 56.7736C60.7178 57.0376 61.1498 57.2536 61.6538 57.4216C62.1818 57.5656 62.7818 57.6376 63.4538 57.6376C64.3898 57.6376 65.2778 57.4096 66.1178 56.9536C66.9818 56.4736 67.7498 55.7896 68.4218 54.9016C69.1178 54.0136 69.6578 52.9336 70.0418 51.6616C70.4498 50.3656 70.6539 48.8896 70.6539 47.2336C70.6539 45.5296 70.3538 43.9576 69.7538 42.5176C69.1539 41.0536 68.2898 39.7936 67.1618 38.7376C66.0338 37.6576 64.6778 36.8176 63.0938 36.2176C61.5098 35.6176 59.7338 35.3176 57.7658 35.3176C55.5098 35.3176 53.4218 35.7136 51.5018 36.5056C49.5818 37.2736 47.9018 38.3776 46.4618 39.8176C45.0218 41.2336 43.8938 42.9016 43.0778 44.8216C42.2858 46.7416 41.8898 48.8416 41.8898 51.1216C41.8898 53.2816 42.2498 55.2256 42.9698 56.9536C43.7138 58.6576 44.7578 60.1096 46.1018 61.3096C47.4458 62.5336 49.0298 63.4576 50.8538 64.0816C52.6778 64.7296 54.6698 65.0536 56.8298 65.0536C58.1258 65.0536 59.3378 64.9336 60.4658 64.6936C61.6178 64.4776 62.6618 64.1896 63.5978 63.8296C64.5338 63.4696 65.3138 63.0976 65.9378 62.7136L65.6498 61.8496C64.9778 62.2336 64.1978 62.5936 63.3098 62.9296C62.4218 63.2896 61.4378 63.5776 60.3578 63.7936ZM59.0901 53.9806C58.8623 54.2944 58.6369 54.5894 58.4138 54.8656C57.9098 55.4896 57.3818 55.9816 56.8298 56.3416C56.2778 56.7016 55.6418 56.8816 54.9218 56.8816C54.1778 56.8816 53.5418 56.6896 53.0138 56.3056C52.4858 55.8976 52.0898 55.3096 51.8258 54.5416C51.5618 53.7736 51.4298 52.7896 51.4298 51.5896C51.4298 50.6056 51.5618 49.6336 51.8258 48.6736C52.1138 47.6896 52.5098 46.8016 53.0138 46.0096C53.5178 45.2176 54.1178 44.5816 54.8138 44.1016C55.5098 43.6216 56.2778 43.3816 57.1178 43.3816C57.7658 43.3816 58.3298 43.5136 58.8098 43.7776C59.2898 44.0176 59.7098 44.4376 60.0698 45.0376C60.2082 45.2681 60.3376 45.5341 60.4582 45.8355L59.0901 53.9806Z" fill="white"/>
<defs>
<linearGradient id="paint0_linear_314_376" x1="58.5" y1="0" x2="58.5" y2="116" gradientUnits="userSpaceOnUse">
<stop offset="0.23" stop-color="#6E61CA"/>
<stop offset="0.815" stop-color="#AB79ED"/>
<stop offset="1" stop-color="#C282FA"/>
</linearGradient>
</defs>
</svg>
