<svg width="73" height="73" viewBox="0 0 73 73" fill="none" xmlns="http://www.w3.org/2000/svg">
<path fill-rule="evenodd" clip-rule="evenodd" d="M41.5869 4.04083C41.5869 3.22745 40.6675 2.75433 40.0057 3.22709L34.5869 7.09764H31.5869C30.4823 7.09764 29.5869 7.99307 29.5869 9.09764V15.0976C29.5869 16.2022 30.4823 17.0976 31.5869 17.0976H31.8152L41.5869 9.49744V4.04083ZM41.5869 12.0312L34.8402 17.2786L40.0057 20.9682C40.6675 21.4409 41.5869 20.9678 41.5869 20.1544V12.0312Z" fill="url(#paint0_linear_140_1226)"/>
<path d="M45.5869 5.09766L27.5869 19.0977" stroke="url(#paint1_linear_140_1226)" stroke-width="2" stroke-linecap="round" stroke-linejoin="round"/>
<path d="M26.2988 37.9883H27.2119L29.541 43.7842L31.8652 37.9883H32.7832L29.8926 45.0977H29.1797L26.2988 37.9883ZM26.001 37.9883H26.8066L26.9385 42.3242V45.0977H26.001V37.9883ZM32.2705 37.9883H33.0762V45.0977H32.1387V42.3242L32.2705 37.9883ZM37.8271 43.877V39.8145H38.7354V45.0977H37.8711L37.8271 43.877ZM37.998 42.7637L38.374 42.7539C38.374 43.1055 38.3366 43.431 38.2617 43.7305C38.1901 44.0267 38.0729 44.2839 37.9102 44.502C37.7474 44.7201 37.5342 44.891 37.2705 45.0146C37.0068 45.1351 36.6862 45.1953 36.3086 45.1953C36.0514 45.1953 35.8154 45.1579 35.6006 45.083C35.389 45.0081 35.2067 44.8926 35.0537 44.7363C34.9007 44.5801 34.7819 44.3766 34.6973 44.126C34.6159 43.8753 34.5752 43.5742 34.5752 43.2227V39.8145H35.4785V43.2324C35.4785 43.4701 35.5046 43.667 35.5566 43.8232C35.612 43.9762 35.6852 44.0983 35.7764 44.1895C35.8708 44.2773 35.9749 44.3392 36.0889 44.375C36.2061 44.4108 36.3265 44.4287 36.4502 44.4287C36.8343 44.4287 37.1387 44.3555 37.3633 44.209C37.5879 44.0592 37.749 43.859 37.8467 43.6084C37.9476 43.3545 37.998 43.0729 37.998 42.7637ZM42.3242 39.8145V40.5078H39.4678V39.8145H42.3242ZM40.4346 38.5303H41.3379V43.7891C41.3379 43.9681 41.3656 44.1032 41.4209 44.1943C41.4762 44.2855 41.5479 44.3457 41.6357 44.375C41.7236 44.4043 41.818 44.4189 41.9189 44.4189C41.9938 44.4189 42.0719 44.4124 42.1533 44.3994C42.238 44.3831 42.3014 44.3701 42.3438 44.3604L42.3486 45.0977C42.277 45.1204 42.1826 45.1416 42.0654 45.1611C41.9515 45.1839 41.8132 45.1953 41.6504 45.1953C41.429 45.1953 41.2256 45.1514 41.04 45.0635C40.8545 44.9756 40.7064 44.8291 40.5957 44.624C40.4883 44.4157 40.4346 44.1357 40.4346 43.7842V38.5303ZM45.5762 45.1953C45.2083 45.1953 44.8747 45.1335 44.5752 45.0098C44.279 44.8828 44.0234 44.7054 43.8086 44.4775C43.597 44.2497 43.4342 43.9795 43.3203 43.667C43.2064 43.3545 43.1494 43.0127 43.1494 42.6416V42.4365C43.1494 42.0068 43.2129 41.6243 43.3398 41.2891C43.4668 40.9505 43.6393 40.6641 43.8574 40.4297C44.0755 40.1953 44.3229 40.0179 44.5996 39.8975C44.8763 39.777 45.1628 39.7168 45.459 39.7168C45.8366 39.7168 46.1621 39.7819 46.4355 39.9121C46.7122 40.0423 46.9385 40.2246 47.1143 40.459C47.29 40.6901 47.4202 40.9635 47.5049 41.2793C47.5895 41.5918 47.6318 41.9336 47.6318 42.3047V42.71H43.6865V41.9727H46.7285V41.9043C46.7155 41.6699 46.6667 41.4421 46.582 41.2207C46.5007 40.9993 46.3704 40.8171 46.1914 40.6738C46.0124 40.5306 45.7682 40.459 45.459 40.459C45.2539 40.459 45.0651 40.5029 44.8926 40.5908C44.7201 40.6755 44.5719 40.8024 44.4482 40.9717C44.3245 41.141 44.2285 41.3477 44.1602 41.5918C44.0918 41.8359 44.0576 42.1175 44.0576 42.4365V42.6416C44.0576 42.8923 44.0918 43.1283 44.1602 43.3496C44.2318 43.5677 44.3343 43.7598 44.4678 43.9258C44.6045 44.0918 44.7689 44.222 44.9609 44.3164C45.1562 44.4108 45.3776 44.458 45.625 44.458C45.944 44.458 46.2142 44.3929 46.4355 44.2627C46.6569 44.1325 46.8506 43.9583 47.0166 43.7402L47.5635 44.1748C47.4495 44.3473 47.3047 44.5117 47.1289 44.668C46.9531 44.8242 46.7367 44.9512 46.4795 45.0488C46.2256 45.1465 45.9245 45.1953 45.5762 45.1953Z" fill="url(#paint2_linear_140_1226)"/>
<path d="M1.09082 65.0877H9.26082V65.7677H1.09082V65.0877ZM2.14082 63.4477H8.32082V64.1277H2.14082V63.4477ZM2.14082 61.1177H8.22082V61.7977H2.97082V63.8477H2.14082V61.1177ZM2.11082 69.0777H8.36082V69.7577H2.11082V69.0777ZM2.11082 66.7377H8.27082V67.4077H2.94082V69.4677H2.11082V66.7377ZM11.15 61.7377H16.97V62.4277H11.15V61.7377ZM10.29 67.9277H18.46V68.6177H10.29V67.9277ZM13.46 64.6977H14.29V68.2677H13.46V64.6977ZM16.66 61.7377H17.48V62.6377C17.48 63.7577 17.48 64.9977 17.15 66.8277L16.32 66.7177C16.66 64.9877 16.66 63.7177 16.66 62.6377V61.7377ZM28.5397 60.8477H29.3797V65.8577H28.5397V60.8477ZM24.3197 61.1677H25.0097V62.0477C25.0097 63.7177 23.9697 65.1277 22.4397 65.6777L22.0197 65.0277C23.3797 64.5477 24.3197 63.3477 24.3197 62.0477V61.1677ZM24.4697 61.1677H25.1497V62.0477C25.1497 63.3077 26.0997 64.4177 27.4397 64.8577L27.0297 65.5177C25.5097 64.9977 24.4697 63.6677 24.4697 62.0477V61.1677ZM23.3997 66.3977H29.4297V67.0777H23.3997V66.3977ZM23.3097 69.0877H29.5297V69.7577H23.3097V69.0877ZM24.6397 66.6877H25.4497V69.4777H24.6397V66.6877ZM27.3797 66.6877H28.1997V69.4777H27.3797V66.6877ZM33.5589 62.1277H34.2289V63.5977C34.2289 65.5077 33.0789 67.4277 31.6389 68.1377L31.1589 67.4777C32.4689 66.8577 33.5589 65.1577 33.5589 63.5977V62.1277ZM33.7189 62.1277H34.3889V63.5977C34.3889 65.1277 35.4789 66.6877 36.8089 67.2577L36.3389 67.9177C34.8789 67.2377 33.7189 65.4777 33.7189 63.5977V62.1277ZM31.4589 61.7577H36.5089V62.4577H31.4589V61.7577ZM37.7289 60.8377H38.5589V69.8777H37.7289V60.8377ZM45.3386 61.3477C46.6886 61.3477 47.6786 62.2077 47.6786 63.4377C47.6786 64.6677 46.6886 65.5277 45.3386 65.5277C43.9986 65.5277 43.0086 64.6677 43.0086 63.4377C43.0086 62.2077 43.9986 61.3477 45.3386 61.3477ZM45.3386 62.0277C44.4786 62.0277 43.8186 62.6177 43.8186 63.4377C43.8186 64.2577 44.4786 64.8477 45.3386 64.8477C46.2186 64.8477 46.8786 64.2577 46.8786 63.4377C46.8786 62.6177 46.2186 62.0277 45.3386 62.0277ZM49.0286 60.8377H49.8586V65.3377H49.0286V60.8377ZM49.4986 62.8677H51.1986V63.5477H49.4986V62.8677ZM43.7886 68.9577H44.2186C44.7586 68.9577 45.6286 68.9077 46.3986 68.6477L46.5386 69.3177C45.6686 69.5977 44.8386 69.6377 44.2186 69.6377H43.7886V68.9577ZM43.7886 66.3177H44.5986V69.1977H43.7886V66.3177ZM46.2086 66.3777H50.7486V66.9977H46.2086V66.3777ZM48.4886 67.3177C49.4686 67.3177 50.1586 67.8077 50.1586 68.5877C50.1586 69.3777 49.4686 69.8677 48.4886 69.8677C47.4986 69.8677 46.8086 69.3777 46.8086 68.5877C46.8086 67.8077 47.4986 67.3177 48.4886 67.3177ZM48.4886 67.9077C47.9286 67.9077 47.5486 68.1777 47.5486 68.5877C47.5486 69.0077 47.9286 69.2777 48.4886 69.2777C49.0286 69.2777 49.4186 69.0077 49.4186 68.5877C49.4186 68.1777 49.0286 67.9077 48.4886 67.9077ZM48.0786 65.5677H48.8886V66.8577H48.0786V65.5677ZM54.4479 61.5277C55.7779 61.5277 56.7179 62.7577 56.7179 64.6777C56.7179 66.6077 55.7779 67.8377 54.4479 67.8377C53.1179 67.8377 52.1779 66.6077 52.1779 64.6777C52.1779 62.7577 53.1179 61.5277 54.4479 61.5277ZM54.4479 62.2777C53.5679 62.2777 52.9679 63.2177 52.9679 64.6777C52.9679 66.1477 53.5679 67.1077 54.4479 67.1077C55.3179 67.1077 55.9279 66.1477 55.9279 64.6777C55.9279 63.2177 55.3179 62.2777 54.4479 62.2777ZM58.1579 60.8377H58.9979V69.8777H58.1579V60.8377ZM58.7979 64.4477H60.4779V65.1477H58.7979V64.4477ZM63.2471 65.4877H64.0671V68.1977H63.2471V65.4877ZM66.5871 65.4877H67.4171V68.1977H66.5871V65.4877ZM61.2471 68.0377H69.4371V68.7277H61.2471V68.0377ZM65.3271 61.4077C67.2371 61.4077 68.6071 62.3177 68.6071 63.7377C68.6071 65.1477 67.2371 66.0577 65.3271 66.0577C63.4071 66.0577 62.0371 65.1477 62.0371 63.7377C62.0371 62.3177 63.4071 61.4077 65.3271 61.4077ZM65.3271 62.0677C63.8771 62.0677 62.8371 62.7277 62.8371 63.7377C62.8371 64.7377 63.8771 65.3977 65.3271 65.3977C66.7771 65.3977 67.8071 64.7377 67.8071 63.7377C67.8071 62.7277 66.7771 62.0677 65.3271 62.0677ZM70.6494 68.6191C70.6494 68.4661 70.6966 68.3376 70.791 68.2334C70.8887 68.126 71.0286 68.0723 71.2109 68.0723C71.3932 68.0723 71.5316 68.126 71.626 68.2334C71.7236 68.3376 71.7725 68.4661 71.7725 68.6191C71.7725 68.7689 71.7236 68.8958 71.626 69C71.5316 69.1042 71.3932 69.1562 71.2109 69.1562C71.0286 69.1562 70.8887 69.1042 70.791 69C70.6966 68.8958 70.6494 68.7689 70.6494 68.6191Z" fill="url(#paint3_linear_140_1226)"/>
<defs>
<linearGradient id="paint0_linear_140_1226" x1="35.5869" y1="3.03906" x2="35.5869" y2="21.1562" gradientUnits="userSpaceOnUse">
<stop stop-color="#EBEDEE"/>
</linearGradient>
<linearGradient id="paint1_linear_140_1226" x1="36.5869" y1="5.09766" x2="36.5869" y2="19.0977" gradientUnits="userSpaceOnUse">
<stop stop-color="#EBEDEE"/>
</linearGradient>
<linearGradient id="paint2_linear_140_1226" x1="36.5869" y1="36.0977" x2="36.5869" y2="48.0977" gradientUnits="userSpaceOnUse">
<stop stop-color="#EBEDEE"/>
</linearGradient>
<linearGradient id="paint3_linear_140_1226" x1="36.5869" y1="60.0977" x2="36.5869" y2="72.0977" gradientUnits="userSpaceOnUse">
<stop stop-color="#EBEDEE"/>
</linearGradient>
</defs>
</svg>
