<svg width="25" height="25" viewBox="0 0 25 25" fill="none" xmlns="http://www.w3.org/2000/svg">
<path d="M21.7301 6.64154C22.3568 6.24987 22.3568 5.33721 21.7301 4.94554L16.6169 1.74979C15.9509 1.33351 15.0869 1.81235 15.0869 2.59779V8.98929C15.0869 9.77473 15.9509 10.2536 16.6169 9.83729L21.7301 6.64154Z" fill="#EBEDEE"/>
<path d="M2.55705 19.6415C1.93038 19.2499 1.93039 18.3372 2.55705 17.9455L7.67026 14.7498C8.33631 14.3335 9.20026 14.8124 9.20026 15.5978V21.9893C9.20026 22.7747 8.33631 23.2536 7.67026 22.8373L2.55705 19.6415Z" fill="#EBEDEE"/>
<path d="M4.08691 11.5977V11.5977C4.08691 8.28395 6.77321 5.59766 10.0869 5.59766V5.59766H15.0869" stroke="#EBEDEE" stroke-width="2" stroke-linecap="round" stroke-linejoin="round"/>
<path d="M19.0869 12.5977V12.5977C19.0869 15.9114 16.4006 18.5977 13.0869 18.5977V18.5977H8.08691" stroke="#EBEDEE" stroke-width="2" stroke-linecap="round" stroke-linejoin="round"/>
</svg>
