<svg width="64" height="85" viewBox="0 0 64 85" fill="none" xmlns="http://www.w3.org/2000/svg">
<path d="M31.5057 3.22712C32.1675 2.75435 33.0869 3.22748 33.0869 4.04085V20.1545C33.0869 20.9678 32.1675 21.441 31.5057 20.9682L26.0869 17.0977H23.0869C21.9823 17.0977 21.0869 16.2022 21.0869 15.0977V9.09766C21.0869 7.99309 21.9823 7.09766 23.0869 7.09766H26.0869L31.5057 3.22712Z" fill="url(#paint0_linear_140_1227)"/>
<path d="M36.0807 17.0031C37.3216 15.74 38.0869 14.0082 38.0869 12.0977C38.0869 10.1792 37.3151 8.44095 36.065 7.17651" stroke="url(#paint1_linear_140_1227)" stroke-width="2" stroke-linecap="round" stroke-linejoin="round"/>
<path d="M38.8651 4.31958C40.8557 6.31019 42.0869 9.06019 42.0869 12.0978C42.0869 15.1353 40.8557 17.8853 38.8651 19.8759" stroke="url(#paint2_linear_140_1227)" stroke-width="2" stroke-linecap="round" stroke-linejoin="round"/>
<path d="M15.5879 43.3008C15.5879 43.1348 15.5618 42.9883 15.5098 42.8613C15.4609 42.7311 15.373 42.6139 15.2461 42.5098C15.1224 42.4056 14.9499 42.3063 14.7285 42.2119C14.5104 42.1175 14.2337 42.0215 13.8984 41.9238C13.5469 41.8197 13.2295 41.7041 12.9463 41.5771C12.6631 41.4469 12.4206 41.2988 12.2188 41.1328C12.0169 40.9668 11.8623 40.7764 11.7549 40.5615C11.6475 40.3467 11.5938 40.1009 11.5938 39.8242C11.5938 39.5475 11.6507 39.292 11.7646 39.0576C11.8786 38.8232 12.0413 38.6198 12.2529 38.4473C12.4678 38.2715 12.7233 38.1348 13.0195 38.0371C13.3158 37.9395 13.6462 37.8906 14.0107 37.8906C14.5446 37.8906 14.9971 37.9932 15.3682 38.1982C15.7425 38.4001 16.0273 38.6654 16.2227 38.9941C16.418 39.3197 16.5156 39.668 16.5156 40.0391H15.5781C15.5781 39.7721 15.5212 39.5361 15.4072 39.3311C15.2933 39.1227 15.1208 38.96 14.8896 38.8428C14.6585 38.7223 14.3656 38.6621 14.0107 38.6621C13.6755 38.6621 13.3988 38.7126 13.1807 38.8135C12.9626 38.9144 12.7998 39.0511 12.6924 39.2236C12.5882 39.3962 12.5361 39.5931 12.5361 39.8145C12.5361 39.9642 12.5671 40.1009 12.6289 40.2246C12.694 40.3451 12.7933 40.4574 12.9268 40.5615C13.0635 40.6657 13.236 40.7617 13.4443 40.8496C13.6559 40.9375 13.9082 41.0221 14.2012 41.1035C14.6048 41.2174 14.9531 41.3444 15.2461 41.4844C15.5391 41.6243 15.7799 41.7822 15.9688 41.958C16.1608 42.1305 16.3024 42.3275 16.3936 42.5488C16.488 42.7669 16.5352 43.0143 16.5352 43.291C16.5352 43.5807 16.4766 43.8428 16.3594 44.0771C16.2422 44.3115 16.0745 44.5117 15.8564 44.6777C15.6383 44.8438 15.3763 44.9723 15.0703 45.0635C14.7676 45.1514 14.429 45.1953 14.0547 45.1953C13.7259 45.1953 13.402 45.1497 13.083 45.0586C12.7673 44.9674 12.4792 44.8307 12.2188 44.6484C11.9616 44.4661 11.7549 44.2415 11.5986 43.9746C11.4456 43.7044 11.3691 43.3919 11.3691 43.0371H12.3066C12.3066 43.2812 12.3538 43.4912 12.4482 43.667C12.5426 43.8395 12.6712 43.9827 12.834 44.0967C13 44.2106 13.1872 44.2952 13.3955 44.3506C13.6071 44.4027 13.8268 44.4287 14.0547 44.4287C14.3835 44.4287 14.6618 44.3831 14.8896 44.292C15.1175 44.2008 15.29 44.0706 15.4072 43.9014C15.5277 43.7321 15.5879 43.5319 15.5879 43.3008ZM17.3604 42.5146V42.4023C17.3604 42.0215 17.4157 41.6683 17.5264 41.3428C17.637 41.014 17.7965 40.7292 18.0049 40.4883C18.2132 40.2441 18.4655 40.0553 18.7617 39.9219C19.0579 39.7852 19.39 39.7168 19.7578 39.7168C20.1289 39.7168 20.4626 39.7852 20.7588 39.9219C21.0583 40.0553 21.3122 40.2441 21.5205 40.4883C21.7321 40.7292 21.8932 41.014 22.0039 41.3428C22.1146 41.6683 22.1699 42.0215 22.1699 42.4023V42.5146C22.1699 42.8955 22.1146 43.2487 22.0039 43.5742C21.8932 43.8997 21.7321 44.1846 21.5205 44.4287C21.3122 44.6696 21.0599 44.8584 20.7637 44.9951C20.4707 45.1286 20.1387 45.1953 19.7676 45.1953C19.3965 45.1953 19.0628 45.1286 18.7666 44.9951C18.4704 44.8584 18.2165 44.6696 18.0049 44.4287C17.7965 44.1846 17.637 43.8997 17.5264 43.5742C17.4157 43.2487 17.3604 42.8955 17.3604 42.5146ZM18.2637 42.4023V42.5146C18.2637 42.7783 18.2946 43.0273 18.3564 43.2617C18.4183 43.4928 18.5111 43.6979 18.6348 43.877C18.7617 44.056 18.9196 44.1976 19.1084 44.3018C19.2972 44.4027 19.5169 44.4531 19.7676 44.4531C20.015 44.4531 20.2314 44.4027 20.417 44.3018C20.6058 44.1976 20.762 44.056 20.8857 43.877C21.0094 43.6979 21.1022 43.4928 21.1641 43.2617C21.2292 43.0273 21.2617 42.7783 21.2617 42.5146V42.4023C21.2617 42.1419 21.2292 41.8962 21.1641 41.665C21.1022 41.4307 21.0078 41.224 20.8809 41.0449C20.7572 40.8626 20.6009 40.7194 20.4121 40.6152C20.2266 40.5111 20.0085 40.459 19.7578 40.459C19.5104 40.459 19.2923 40.5111 19.1035 40.6152C18.918 40.7194 18.7617 40.8626 18.6348 41.0449C18.5111 41.224 18.4183 41.4307 18.3564 41.665C18.2946 41.8962 18.2637 42.1419 18.2637 42.4023ZM26.5352 43.877V39.8145H27.4434V45.0977H26.5791L26.5352 43.877ZM26.7061 42.7637L27.082 42.7539C27.082 43.1055 27.0446 43.431 26.9697 43.7305C26.8981 44.0267 26.7809 44.2839 26.6182 44.502C26.4554 44.7201 26.2422 44.891 25.9785 45.0146C25.7148 45.1351 25.3942 45.1953 25.0166 45.1953C24.7594 45.1953 24.5234 45.1579 24.3086 45.083C24.097 45.0081 23.9147 44.8926 23.7617 44.7363C23.6087 44.5801 23.4899 44.3766 23.4053 44.126C23.3239 43.8753 23.2832 43.5742 23.2832 43.2227V39.8145H24.1865V43.2324C24.1865 43.4701 24.2126 43.667 24.2646 43.8232C24.32 43.9762 24.3932 44.0983 24.4844 44.1895C24.5788 44.2773 24.6829 44.3392 24.7969 44.375C24.9141 44.4108 25.0345 44.4287 25.1582 44.4287C25.5423 44.4287 25.8467 44.3555 26.0713 44.209C26.2959 44.0592 26.457 43.859 26.5547 43.6084C26.6556 43.3545 26.7061 43.0729 26.7061 42.7637ZM29.7236 40.9424V45.0977H28.8203V39.8145H29.6748L29.7236 40.9424ZM29.5088 42.2559L29.1328 42.2412C29.1361 41.8799 29.1898 41.5462 29.2939 41.2402C29.3981 40.931 29.5446 40.6624 29.7334 40.4346C29.9222 40.2067 30.1468 40.0309 30.4072 39.9072C30.6709 39.7803 30.9622 39.7168 31.2812 39.7168C31.5417 39.7168 31.776 39.7526 31.9844 39.8242C32.1927 39.8926 32.3701 40.0033 32.5166 40.1562C32.6663 40.3092 32.7803 40.5078 32.8584 40.752C32.9365 40.9928 32.9756 41.2874 32.9756 41.6357V45.0977H32.0674V41.626C32.0674 41.3493 32.0267 41.1279 31.9453 40.9619C31.8639 40.7926 31.7451 40.6706 31.5889 40.5957C31.4326 40.5176 31.2406 40.4785 31.0127 40.4785C30.7881 40.4785 30.583 40.5257 30.3975 40.6201C30.2152 40.7145 30.0573 40.8447 29.9238 41.0107C29.7936 41.1768 29.6911 41.3672 29.6162 41.582C29.5446 41.7936 29.5088 42.0182 29.5088 42.2559ZM37.6777 44.0723V37.5977H38.5859V45.0977H37.7559L37.6777 44.0723ZM34.123 42.5146V42.4121C34.123 42.0085 34.1719 41.6423 34.2695 41.3135C34.3704 40.9814 34.512 40.6966 34.6943 40.459C34.8799 40.2214 35.0996 40.0391 35.3535 39.9121C35.6107 39.7819 35.8971 39.7168 36.2129 39.7168C36.5449 39.7168 36.8346 39.7754 37.082 39.8926C37.3327 40.0065 37.5443 40.1742 37.7168 40.3955C37.8926 40.6136 38.0309 40.8773 38.1318 41.1865C38.2327 41.4958 38.3027 41.8457 38.3418 42.2363V42.6855C38.306 43.0729 38.236 43.4212 38.1318 43.7305C38.0309 44.0397 37.8926 44.3034 37.7168 44.5215C37.5443 44.7396 37.3327 44.9072 37.082 45.0244C36.8314 45.1383 36.5384 45.1953 36.2031 45.1953C35.8939 45.1953 35.6107 45.1286 35.3535 44.9951C35.0996 44.8617 34.8799 44.6745 34.6943 44.4336C34.512 44.1927 34.3704 43.9095 34.2695 43.584C34.1719 43.2552 34.123 42.8988 34.123 42.5146ZM35.0312 42.4121V42.5146C35.0312 42.7783 35.0573 43.0257 35.1094 43.2568C35.1647 43.488 35.2493 43.6914 35.3633 43.8672C35.4772 44.043 35.6221 44.1813 35.7979 44.2822C35.9736 44.3799 36.1836 44.4287 36.4277 44.4287C36.7272 44.4287 36.973 44.3652 37.165 44.2383C37.3604 44.1113 37.5166 43.9437 37.6338 43.7354C37.751 43.527 37.8421 43.3008 37.9072 43.0566V41.8799C37.8682 41.7008 37.8112 41.5283 37.7363 41.3623C37.6647 41.193 37.5703 41.0433 37.4531 40.9131C37.3392 40.7796 37.1976 40.6738 37.0283 40.5957C36.8623 40.5176 36.6654 40.4785 36.4375 40.4785C36.1901 40.4785 35.9769 40.5306 35.7979 40.6348C35.6221 40.7357 35.4772 40.8757 35.3633 41.0547C35.2493 41.2305 35.1647 41.4355 35.1094 41.6699C35.0573 41.901 35.0312 42.1484 35.0312 42.4121ZM41.8721 41.7041V42.4463H39.4893V41.7041H41.8721ZM45.9883 43.877V39.8145H46.8965V45.0977H46.0322L45.9883 43.877ZM46.1592 42.7637L46.5352 42.7539C46.5352 43.1055 46.4977 43.431 46.4229 43.7305C46.3512 44.0267 46.234 44.2839 46.0713 44.502C45.9085 44.7201 45.6953 44.891 45.4316 45.0146C45.168 45.1351 44.8473 45.1953 44.4697 45.1953C44.2126 45.1953 43.9766 45.1579 43.7617 45.083C43.5501 45.0081 43.3678 44.8926 43.2148 44.7363C43.0618 44.5801 42.943 44.3766 42.8584 44.126C42.777 43.8753 42.7363 43.5742 42.7363 43.2227V39.8145H43.6396V43.2324C43.6396 43.4701 43.6657 43.667 43.7178 43.8232C43.7731 43.9762 43.8464 44.0983 43.9375 44.1895C44.0319 44.2773 44.1361 44.3392 44.25 44.375C44.3672 44.4108 44.4876 44.4287 44.6113 44.4287C44.9954 44.4287 45.2998 44.3555 45.5244 44.209C45.749 44.0592 45.9102 43.859 46.0078 43.6084C46.1087 43.3545 46.1592 43.0729 46.1592 42.7637ZM49.1768 40.8301V47.1289H48.2686V39.8145H49.0986L49.1768 40.8301ZM52.7363 42.4121V42.5146C52.7363 42.8988 52.6908 43.2552 52.5996 43.584C52.5085 43.9095 52.375 44.1927 52.1992 44.4336C52.0267 44.6745 51.8135 44.8617 51.5596 44.9951C51.3057 45.1286 51.0143 45.1953 50.6855 45.1953C50.3503 45.1953 50.054 45.14 49.7969 45.0293C49.5397 44.9186 49.3216 44.7575 49.1426 44.5459C48.9635 44.3343 48.8203 44.0804 48.7129 43.7842C48.6087 43.488 48.5371 43.1543 48.498 42.7832V42.2363C48.5371 41.8457 48.6104 41.4958 48.7178 41.1865C48.8252 40.8773 48.9668 40.6136 49.1426 40.3955C49.3216 40.1742 49.5381 40.0065 49.792 39.8926C50.0459 39.7754 50.3389 39.7168 50.6709 39.7168C51.0029 39.7168 51.2975 39.7819 51.5547 39.9121C51.8118 40.0391 52.0283 40.2214 52.2041 40.459C52.3799 40.6966 52.5117 40.9814 52.5996 41.3135C52.6908 41.6423 52.7363 42.0085 52.7363 42.4121ZM51.8281 42.5146V42.4121C51.8281 42.1484 51.8005 41.901 51.7451 41.6699C51.6898 41.4355 51.6035 41.2305 51.4863 41.0547C51.3724 40.8757 51.2259 40.7357 51.0469 40.6348C50.8678 40.5306 50.6546 40.4785 50.4072 40.4785C50.1794 40.4785 49.9808 40.5176 49.8115 40.5957C49.6455 40.6738 49.5039 40.7796 49.3867 40.9131C49.2695 41.0433 49.1735 41.193 49.0986 41.3623C49.027 41.5283 48.9733 41.7008 48.9375 41.8799V43.1445C49.0026 43.3724 49.0938 43.5872 49.2109 43.7891C49.3281 43.9876 49.4844 44.1488 49.6797 44.2725C49.875 44.3929 50.1208 44.4531 50.417 44.4531C50.6611 44.4531 50.8711 44.4027 51.0469 44.3018C51.2259 44.1976 51.3724 44.056 51.4863 43.877C51.6035 43.6979 51.6898 43.4928 51.7451 43.2617C51.8005 43.0273 51.8281 42.7783 51.8281 42.5146Z" fill="url(#paint3_linear_140_1227)"/>
<path d="M1.71855 66.9577H2.40855C4.08855 66.9577 5.16855 66.9177 6.42856 66.6777L6.51856 67.3577C5.21855 67.5977 4.12855 67.6577 2.40855 67.6577H1.71855V66.9577ZM1.71855 61.6977H5.82856V62.3777H2.53855V67.2177H1.71855V61.6977ZM7.88855 60.8377H8.71855V69.8977H7.88855V60.8377ZM5.29855 64.1077H8.22856V64.7977H5.29855V64.1077ZM19.1282 60.8377H19.9582V65.4477H19.1282V60.8377ZM19.5982 62.8677H21.2982V63.5577H19.5982V62.8677ZM13.3182 61.4277H17.4682V65.1177H13.3182V61.4277ZM16.6582 62.0977H14.1282V64.4577H16.6582V62.0977ZM13.8882 68.9577H14.3182C14.8582 68.9577 15.7282 68.9077 16.4982 68.6477L16.6382 69.3177C15.7682 69.5977 14.9382 69.6377 14.3182 69.6377H13.8882V68.9577ZM13.8882 66.2777H14.6982V69.1377H13.8882V66.2777ZM16.3082 66.3677H20.8482V66.9877H16.3082V66.3677ZM18.5882 67.3177C19.5682 67.3177 20.2582 67.8177 20.2582 68.5877C20.2582 69.3777 19.5682 69.8677 18.5882 69.8677C17.5982 69.8677 16.9082 69.3777 16.9082 68.5877C16.9082 67.8177 17.5982 67.3177 18.5882 67.3177ZM18.5882 67.9077C18.0282 67.9077 17.6482 68.1777 17.6482 68.5877C17.6482 69.0077 18.0282 69.2777 18.5882 69.2777C19.1282 69.2777 19.5182 69.0077 19.5182 68.5877C19.5182 68.1777 19.1282 67.9077 18.5882 67.9077ZM18.1782 65.5777H18.9882V66.8077H18.1782V65.5777ZM22.1375 65.5877H30.3075V66.2677H22.1375V65.5877ZM23.1975 68.9977H29.4075V69.6777H23.1975V68.9977ZM23.1975 67.0577H24.0275V69.2077H23.1975V67.0577ZM26.2275 61.1377C28.1575 61.1377 29.4075 61.8177 29.4075 62.9477C29.4075 64.0677 28.1575 64.7477 26.2275 64.7477C24.2875 64.7477 23.0475 64.0677 23.0475 62.9477C23.0475 61.8177 24.2875 61.1377 26.2275 61.1377ZM26.2275 61.8177C24.8075 61.8177 23.8975 62.2377 23.8975 62.9477C23.8975 63.6577 24.8075 64.0777 26.2275 64.0777C27.6475 64.0777 28.5575 63.6577 28.5575 62.9477C28.5575 62.2377 27.6475 61.8177 26.2275 61.8177ZM36.0371 61.6177H36.7171V63.2377C36.7171 65.2377 35.6371 67.1877 34.2071 67.9477L33.6971 67.2877C35.0071 66.6277 36.0371 64.8877 36.0371 63.2377V61.6177ZM36.1871 61.6177H36.8571V63.2377C36.8571 64.8277 37.8671 66.4777 39.1471 67.1177L38.6371 67.7777C37.2371 67.0277 36.1871 65.1777 36.1871 63.2377V61.6177ZM39.9371 60.8377H40.7771V69.8777H39.9371V60.8377ZM40.5771 64.4977H42.2571V65.1977H40.5771V64.4977ZM49.2064 60.8477H50.0364V66.2277H49.2064V60.8477ZM49.7864 63.1477H51.3764V63.8477H49.7864V63.1477ZM44.3364 66.6777H50.0364V69.7577H44.3364V66.6777ZM49.2264 67.3377H45.1564V69.0877H49.2264V67.3377ZM43.4164 65.0777H44.1264C45.7664 65.0777 46.9364 65.0377 48.3464 64.7877L48.4164 65.4677C46.9864 65.7077 45.7964 65.7677 44.1264 65.7677H43.4164V65.0777ZM43.3964 61.3277H47.4664V63.8077H44.2264V65.4677H43.4164V63.1677H46.6464V62.0077H43.3964V61.3277ZM58.7856 60.8277H59.6156V69.8877H58.7856V60.8277ZM54.8456 61.5277C56.1856 61.5277 57.1456 62.7577 57.1456 64.6777C57.1456 66.6077 56.1856 67.8377 54.8456 67.8377C53.5156 67.8377 52.5556 66.6077 52.5556 64.6777C52.5556 62.7577 53.5156 61.5277 54.8456 61.5277ZM54.8456 62.2777C53.9656 62.2777 53.3456 63.2177 53.3456 64.6777C53.3456 66.1477 53.9656 67.1077 54.8456 67.1077C55.7356 67.1077 56.3456 66.1477 56.3456 64.6777C56.3456 63.2177 55.7356 62.2777 54.8456 62.2777ZM7.03027 77.0877H15.2003V77.7677H7.03027V77.0877ZM8.08027 75.4477H14.2603V76.1277H8.08027V75.4477ZM8.08027 73.1177H14.1603V73.7977H8.91027V75.8477H8.08027V73.1177ZM8.05027 81.0777H14.3003V81.7577H8.05027V81.0777ZM8.05027 78.7377H14.2103V79.4077H8.88027V81.4677H8.05027V78.7377ZM22.7995 72.8377H23.6395V77.4477H22.7995V72.8377ZM20.0395 73.2777H20.9495C20.9495 75.5877 19.3395 77.0177 16.6795 77.6377L16.3795 76.9577C18.7595 76.4377 20.0395 75.2677 20.0395 73.6977V73.2777ZM16.8295 73.2777H20.5995V73.9577H16.8295V73.2777ZM17.7895 77.8877H23.6395V80.0877H18.6295V81.4577H17.8095V79.4677H22.8095V78.5477H17.7895V77.8877ZM17.8095 81.1277H23.9395V81.7877H17.8095V81.1277ZM34.0192 72.8377H34.8592V81.8777H34.0192V72.8377ZM34.6592 76.3877H36.3392V77.0977H34.6592V76.3877ZM28.2592 73.5977H29.0792V75.9877H31.6592V73.5977H32.4792V79.7077H28.2592V73.5977ZM29.0792 76.6477V79.0277H31.6592V76.6477H29.0792ZM37.3984 79.0277H37.9984C39.0984 79.0277 40.0984 78.9877 41.3184 78.7777L41.3884 79.4677C40.1384 79.6877 39.1184 79.7177 37.9984 79.7177H37.3984V79.0277ZM37.3784 73.8177H40.7684V76.9977H38.2084V79.2877H37.3984V76.3177H39.9584V74.4977H37.3784V73.8177ZM43.9784 72.8377H44.7784V81.8777H43.9784V72.8377ZM42.4484 76.4077H44.1884V77.0877H42.4484V76.4077ZM41.9284 73.0377H42.7084V81.4177H41.9284V73.0377ZM48.3076 77.4877H49.1276V80.1977H48.3076V77.4877ZM51.6476 77.4877H52.4776V80.1977H51.6476V77.4877ZM46.3076 80.0377H54.4976V80.7277H46.3076V80.0377ZM50.3876 73.4077C52.2976 73.4077 53.6676 74.3177 53.6676 75.7377C53.6676 77.1477 52.2976 78.0577 50.3876 78.0577C48.4676 78.0577 47.0976 77.1477 47.0976 75.7377C47.0976 74.3177 48.4676 73.4077 50.3876 73.4077ZM50.3876 74.0677C48.9376 74.0677 47.8976 74.7277 47.8976 75.7377C47.8976 76.7377 48.9376 77.3977 50.3876 77.3977C51.8376 77.3977 52.8676 76.7377 52.8676 75.7377C52.8676 74.7277 51.8376 74.0677 50.3876 74.0677ZM55.71 80.6191C55.71 80.4661 55.7572 80.3376 55.8516 80.2334C55.9492 80.126 56.0892 80.0723 56.2715 80.0723C56.4538 80.0723 56.5921 80.126 56.6865 80.2334C56.7842 80.3376 56.833 80.4661 56.833 80.6191C56.833 80.7689 56.7842 80.8958 56.6865 81C56.5921 81.1042 56.4538 81.1562 56.2715 81.1562C56.0892 81.1562 55.9492 81.1042 55.8516 81C55.7572 80.8958 55.71 80.7689 55.71 80.6191Z" fill="url(#paint4_linear_140_1227)"/>
<defs>
<linearGradient id="paint0_linear_140_1227" x1="27.0869" y1="3.04077" x2="27.0869" y2="21.1545" gradientUnits="userSpaceOnUse">
<stop stop-color="#EBEDEE"/>
</linearGradient>
<linearGradient id="paint1_linear_140_1227" x1="37.076" y1="7.17651" x2="37.076" y2="17.0031" gradientUnits="userSpaceOnUse">
<stop stop-color="#EBEDEE"/>
</linearGradient>
<linearGradient id="paint2_linear_140_1227" x1="40.476" y1="4.31958" x2="40.476" y2="19.8759" gradientUnits="userSpaceOnUse">
<stop stop-color="#EBEDEE"/>
</linearGradient>
<linearGradient id="paint3_linear_140_1227" x1="32.0869" y1="36.0977" x2="32.0869" y2="48.0977" gradientUnits="userSpaceOnUse">
<stop stop-color="#EBEDEE"/>
</linearGradient>
<linearGradient id="paint4_linear_140_1227" x1="32.0869" y1="60.0977" x2="32.0869" y2="84.0977" gradientUnits="userSpaceOnUse">
<stop stop-color="#EBEDEE"/>
</linearGradient>
</defs>
</svg>
